<svg xmlns="http://www.w3.org/2000/svg" viewBox="0 0 640 420" width="640" height="420">
  <defs>
    <linearGradient id="bg" x1="0" y1="0" x2="0.9" y2="1">
      <stop offset="0" stop-color="#A9C39F"/><stop offset="1" stop-color="#5C8A57"/>
    </linearGradient>
    <radialGradient id="hl" cx="0.3" cy="0.22" r="0.95">
      <stop offset="0" stop-color="#ffffff" stop-opacity="0.28"/>
      <stop offset="0.65" stop-color="#ffffff" stop-opacity="0"/>
    </radialGradient>
  </defs>
  <rect width="640" height="420" fill="url(#bg)"/>
  <rect width="640" height="420" fill="url(#hl)"/>
  <circle cx="320" cy="205" r="118" fill="#ffffff" fill-opacity="0.14"/>
  <g transform="translate(250 135) scale(7.5)" fill="none" stroke="#264a22" stroke-opacity="0.92"
     stroke-width="1.4" stroke-linecap="round" stroke-linejoin="round"><path d="M3 9h18l-1.6 10.2a2 2 0 0 1-2 1.8H6.6a2 2 0 0 1-2-1.8L3 9zM8 9l2-5M16 9l-2-5M8.5 13v4M15.5 13v4M12 13v4"/></g>
  <text x="40" y="392" font-family="Georgia, 'Times New Roman', serif" font-size="14"
     letter-spacing="4" fill="#ffffff" fill-opacity="0.7">SHOPYLAND</text>
</svg>