<svg xmlns="http://www.w3.org/2000/svg" viewBox="0 0 640 420" width="640" height="420">
  <defs>
    <linearGradient id="bg" x1="0" y1="0" x2="0.9" y2="1">
      <stop offset="0" stop-color="#A9C39F"/><stop offset="1" stop-color="#5C8A57"/>
    </linearGradient>
    <radialGradient id="hl" cx="0.3" cy="0.22" r="0.95">
      <stop offset="0" stop-color="#ffffff" stop-opacity="0.28"/>
      <stop offset="0.65" stop-color="#ffffff" stop-opacity="0"/>
    </radialGradient>
  </defs>
  <rect width="640" height="420" fill="url(#bg)"/>
  <rect width="640" height="420" fill="url(#hl)"/>
  <circle cx="320" cy="205" r="118" fill="#ffffff" fill-opacity="0.14"/>
  <g transform="translate(250 135) scale(7.5)" fill="none" stroke="#264a22" stroke-opacity="0.92"
     stroke-width="1.4" stroke-linecap="round" stroke-linejoin="round"><path d="M10 2h4M11 2v3.2c0 .9-.5 1.3-1.3 2.1A4 4 0 0 0 8.5 10v9a2 2 0 0 0 2 2h3a2 2 0 0 0 2-2v-9a4 4 0 0 0-1.2-2.7C15.5 6.5 15 6.1 15 5.2V2M8.5 13h7"/></g>
  <text x="40" y="392" font-family="Georgia, 'Times New Roman', serif" font-size="14"
     letter-spacing="4" fill="#ffffff" fill-opacity="0.7">SHOPYLAND</text>
</svg>