<svg xmlns="http://www.w3.org/2000/svg" viewBox="0 0 640 420" width="640" height="420">
  <defs>
    <linearGradient id="bg" x1="0" y1="0" x2="1" y2="1">
      <stop offset="0" stop-color="#A9C39F"/><stop offset="1" stop-color="#5C8A57"/>
    </linearGradient>
    <radialGradient id="hl" cx="0.25" cy="0.2" r="0.9">
      <stop offset="0" stop-color="#ffffff" stop-opacity="0.35"/>
      <stop offset="0.6" stop-color="#ffffff" stop-opacity="0"/>
    </radialGradient>
    <linearGradient id="scrim" x1="0" y1="0" x2="0" y2="1">
      <stop offset="0" stop-color="#000" stop-opacity="0"/>
      <stop offset="1" stop-color="#000" stop-opacity="0.45"/>
    </linearGradient>
  </defs>
  <rect width="640" height="420" fill="url(#bg)"/>
  <rect width="640" height="420" fill="url(#hl)"/>
  <rect x="245" y="70" width="150" height="150" rx="32" fill="#ffffff" fill-opacity="0.16"/>
  <g transform="translate(260 85) scale(5)" fill="none" stroke="#264a22" stroke-opacity="0.9"
     stroke-width="1.5" stroke-linecap="round" stroke-linejoin="round"><path d="M7 3v6a2 2 0 0 0 4 0V3M9 3v18M17 3c-1.5 0-2.5 2-2.5 5s1 4 2.5 4M17 3v18"/></g>
  <rect x="0" y="250" width="640" height="170" fill="url(#scrim)"/>
  <text x="40" y="70" font-family="Georgia, 'Times New Roman', serif" font-size="15"
     letter-spacing="3" fill="#ffffff" fill-opacity="0.85">SHOPYLAND · SUSTAINABLE</text>
  <text x="40" y="345" font-family="Georgia, 'Times New Roman', serif" font-weight="bold"
     font-size="30" fill="#ffffff"><tspan x="40" dy="0">Bamboo Utensil Set</tspan></text>
</svg>